<?xml version="1.0" encoding="utf-8"?>
<!-- Generator: Adobe Illustrator 19.0.0, SVG Export Plug-In . SVG Version: 6.00 Build 0)  -->
<svg version="1.1" id="Camada_1" xmlns="http://www.w3.org/2000/svg" xmlns:xlink="http://www.w3.org/1999/xlink" x="0px" y="0px"
	 viewBox="0 0 356 308" style="enable-background:new 0 0 356 308;" xml:space="preserve">
<style type="text/css">
	.st0{fill:#FFFFFF;}
</style>
<g>
	<circle id="XMLID_11_" cx="178.7" cy="153.5" r="150"/>
	<g>
		<g>
			<g>
				<g>
					<path class="st0" d="M132,107H80.7c-6.8,0-12.6,2.8-17.4,7.6c-4.8,4.8-7.2,11-7.2,17.8V166h17.3L56,173.3V200h51.9
						c6.8,0,12.3-2.8,17.2-7.6c4.8-4.8,6.9-11,6.9-17.8V141h-16.7l16.7-7.3V107z"/>
					<path class="st0" d="M197,107h-34.6L140,200h37.2l2.4-12.4l2.5,12.4h37.2L197,107z"/>
					<path class="st0" d="M302,137.4v-14.8c0-4.1-1.7-8-4.6-10.8c-2.9-2.9-6.6-4.7-10.7-4.7H225v93h35v-18.1l6.9,18.1H302v-32.9
						c0-4.1-1.7-7.6-4.6-10.5c-2.9-2.9-6.5-4.4-10.6-4.4c4.1,0,7.8-1.5,10.7-4.4C300.4,145,302,141.5,302,137.4z"/>
				</g>
				<g>
					<g>
						<path id="XMLID_7_" d="M193.8,180.7c-1.7-5.9-3.3-11.3-4.8-16.9c-0.4-1.6-0.9-2.3-2.7-2c-2.8,0.4-4.6-1.1-5.5-3.6
							c-1-2.7-1.8-5.5-2.4-8.3c-0.6-2.6,0.8-4.8,3.1-5.3c2.4-0.5,4.6,0.3,5.2,2.8c0.7,2.6,2,2.5,4,1.8c2.2-0.7,4.7-0.8,3.4-4.4
							c-0.8-2.2,0.9-3.8,2.9-4.5c2.2-0.8,4.3-0.1,5.3,2.1c1.4,3.2,2.5,6.5,2.7,10c0.1,2.1-0.7,4.1-2.8,4.9c-2.1,0.8-1.7,1.9-1.3,3.4
							c1.6,5.4,3.1,10.8,4.7,16.7C201,176.1,197.2,177.4,193.8,180.7z"/>
						<path id="XMLID_6_" d="M218.6,200h-17.2c-0.3-1-0.7-1.3-0.9-1.8c2.2-0.1,4.3-0.3,6.3-1.2c1.9-0.9,3.3-2.2,4.6-4.1
							C213.6,195.5,215.9,198,218.6,200z"/>
						<path id="XMLID_5_" d="M204.1,181.2c3.5,0.9,5.7,4.9,4.8,8.4c-0.9,3.4-4.7,5.6-8.1,4.8c-3.5-0.8-5.8-4.7-5-8.3
							C196.5,182.6,200.6,180.3,204.1,181.2z"/>
					</g>
					<path id="XMLID_4_" d="M180.1,148.1l-0.9,5.1l-4.9,28.3c-0.5,3.1-2.1,6.4-4.3,8.6l-9.7,9.9H148l14.9-14.3
						c2.2-2.2,4-6.2,4.6-9.3l7-28.6c0.5-3-0.7-6.4,1.8-5.9c1.7,0.3,3.2,1.7,3.7,3.6C180.2,146.2,180.3,147.1,180.1,148.1z"/>
				</g>
			</g>
			<g>
				<g>
					
						<rect id="XMLID_3_" x="185.9" y="128.9" transform="matrix(0.7071 0.7071 -0.7071 0.7071 148.8515 -93.1844)" width="2" height="8.3"/>
				</g>
				<g>
					
						<rect id="XMLID_2_" x="166.4" y="132.1" transform="matrix(0.7071 0.7071 -0.7071 0.7071 144.0598 -81.6162)" width="8.3" height="2"/>
				</g>
				<g>
					
						<rect id="XMLID_1_" x="173.9" y="128.2" transform="matrix(8.714689e-002 0.9962 -0.9962 8.714689e-002 291.241 -59.4361)" width="8.3" height="2"/>
				</g>
			</g>
		</g>
	</g>
</g>
</svg>
