<?xml version="1.0" encoding="utf-8"?>
<!-- Generator: Adobe Illustrator 19.0.0, SVG Export Plug-In . SVG Version: 6.00 Build 0)  -->
<svg version="1.1" xmlns="http://www.w3.org/2000/svg" xmlns:xlink="http://www.w3.org/1999/xlink" x="0px" y="0px"
	 viewBox="-223 25 512 512" style="enable-background:new -223 25 512 512;" xml:space="preserve">
<g id="gear-01">
	<g>
		<g>
			<path d="M51.7,259.3c-0.1-0.1-0.1-0.2-0.2-0.3l-39.2-39.2c-3.5-3.5-8.9-4.1-13-1.6l-18.4,11c-3.7-1.8-7.5-3.3-11.3-4.7l-5.2-20.8
				c-1.2-4.7-5.4-8.1-10.3-8.1h-55.5c-4.9,0-9.2,3.3-10.3,8.1l-5.2,20.8c-3.8,1.4-7.6,2.9-11.3,4.7l-18.4-11
				c-4.2-2.5-9.6-1.9-13,1.6l-39.2,39.2c-3.5,3.5-4.1,8.8-1.6,13l11,18.4c-1.8,3.7-3.3,7.5-4.7,11.3l-20.8,5.2
				c-4.7,1.2-8.1,5.4-8.1,10.3v55.5c0,4.9,3.3,9.2,8.1,10.3l20.8,5.2c1.4,3.8,2.9,7.6,4.7,11.3l-11,18.4c-2.5,4.2-1.9,9.6,1.6,13
				l39.2,39.2c3.5,3.4,8.9,4.1,13,1.6l18.4-11c3.7,1.8,7.5,3.3,11.3,4.7l5.2,20.8c1.2,4.7,5.4,8.1,10.3,8.1h55.5
				c4.9,0,9.2-3.3,10.3-8.1l5.2-20.8c3.8-1.4,7.6-2.9,11.3-4.7l18.4,11c4.2,2.5,9.6,1.8,13-1.6L51.5,431c3.5-3.5,4.1-8.8,1.6-13
				l-11-18.4c1.8-3.7,3.3-7.5,4.7-11.3l20.8-5.2c4.7-1.2,8.1-5.4,8.1-10.3v-55.5c0-4.9-3.3-9.2-8.1-10.3l-20.8-5.2
				c-1.4-3.8-2.9-7.6-4.7-11.3l11-18.4c0.5-0.9,0.3-1.9,0.6-2.8c0.1,0.1,0.1,0.2,0.2,0.3 M-73.7,409c-35.3,0-64-28.7-64-64
				s28.7-64,64-64s64,28.7,64,64S-38.4,409-73.7,409z"/>
		</g>
	</g>
</g>
<g id="gear-02">
	<g>
		<g>
			<path d="M52.7,267.3c0.1,0.1,0.1,0.2,0.2,0.3l33.2,33.2c3.5,3.5,8.8,4.1,13,1.6l18.6-11.2c1,0.4,2.1,0.9,3.1,1.3l5.3,21.1
				c1.2,4.8,5.4,8.1,10.3,8.1h46.9c4.9,0,9.2-3.3,10.3-8.1l5.3-21.1c1.1-0.4,2.1-0.8,3.1-1.3l18.6,11.2c4.2,2.5,9.6,1.8,13-1.6
				l33.2-33.2c3.5-3.5,4.1-8.8,1.6-13l-11.2-18.6c0.4-1,0.9-2.1,1.3-3.1l21.1-5.3c4.8-1.2,8.1-5.4,8.1-10.3v-46.9
				c0-4.9-3.3-9.2-8.1-10.3l-21.1-5.3c-0.4-1.1-0.8-2.1-1.3-3.1l11.2-18.6c2.5-4.2,1.9-9.6-1.6-13l-33.2-33.2
				c-3.5-3.5-8.8-4.1-13-1.6l-18.6,11.2c-1-0.4-2.1-0.9-3.1-1.3l-5.3-21.1c-1.2-4.8-5.4-8.1-10.3-8.1h-46.9c-4.9,0-9.2,3.3-10.3,8.1
				l-5.3,21.1c-1.1,0.4-2.1,0.8-3.1,1.3L99.1,85c-4.2-2.5-9.6-1.9-13,1.6l-33.2,33.2c-3.5,3.5-4.1,8.8-1.6,13l11.2,18.6
				c-0.4,1-0.9,2.1-1.3,3.1l-21.1,5.3c-4.8,1.2-8.1,5.4-8.1,10.3v46.9c0,4.9,3.3,9.2,8.1,10.3l21.1,5.3c0.4,1.1,0.8,2.1,1.3,3.1
				l-11.2,18.6c-0.5,0.9-0.3,1.9-0.6,2.8c-0.1-0.1-0.1-0.2-0.2-0.3 M160,236.4c-23.5,0-42.7-19.1-42.7-42.7S136.5,151,160,151
				s42.7,19.1,42.7,42.7S183.5,236.4,160,236.4z"/>
		</g>
	</g>
</g>
</svg>
