<?xml version="1.0" encoding="utf-8"?>
<!-- Generator: Adobe Illustrator 19.0.0, SVG Export Plug-In . SVG Version: 6.00 Build 0)  -->
<svg version="1.1" xmlns="http://www.w3.org/2000/svg" xmlns:xlink="http://www.w3.org/1999/xlink" x="0px" y="0px"
	 viewBox="-403 121 516 516" style="enable-background:new -403 121 516 516;" xml:space="preserve">
<g id="_x5F_">
	<path d="M88.1,520.8c-1.7-1.7-3.9-2.6-6.6-2.6h-274.1c-2.7,0-4.9,0.9-6.6,2.6c-1.7,1.7-2.6,3.9-2.6,6.6v18.3c0,2.7,0.9,4.9,2.6,6.6
		c1.7,1.7,3.9,2.6,6.6,2.6H81.6c2.7,0,4.9-0.9,6.6-2.6c1.7-1.7,2.6-3.9,2.6-6.6v-18.3C90.7,524.7,89.8,522.5,88.1,520.8z"/>
</g>
<g id="_x3E_">
	<path d="M-350.4,250.7c-1.9-1.9-4.1-2.9-6.6-2.9s-4.7,1-6.6,2.9l-14.3,14.3c-1.9,1.9-2.9,4.1-2.9,6.6c0,2.5,1,4.7,2.9,6.6
		l112.2,112.2l-112.2,112.2c-1.9,1.9-2.9,4.1-2.9,6.6c0,2.5,1,4.7,2.9,6.6l14.3,14.3c1.9,1.9,4.1,2.9,6.6,2.9s4.7-1,6.6-2.9l133-133
		c1.9-1.9,2.9-4.1,2.9-6.6c0-2.5-0.9-4.7-2.9-6.6L-350.4,250.7z"/>
</g>
</svg>
