<svg viewBox="0 -53 512 512" xmlns="http://www.w3.org/2000/svg"><path d="m239.910156 174.234375c3.769532-5.605469 5.972656-12.351563 5.972656-19.605469 0-19.414062-15.792968-35.210937-35.210937-35.210937h-20.394531c.402344-2.21875.613281-4.5.613281-6.832031 0-17.152344-12.214844-32.011719-29.042969-35.324219l-37.457031-7.375c-20.445313-4.035157-41.835937 1.957031-57.214844 16.019531l-36.664062 33.511719h-14.90625c-8.617188 0-15.605469 6.988281-15.605469 15.605469v156.839843c0 8.621094 6.988281 15.609375 15.605469 15.609375h184.664062c19.414063 0 35.210938-15.796875 35.210938-35.214844 0-4.300781-.777344-8.421874-2.195313-12.238281 7.699219-6.464843 12.597656-16.15625 12.597656-26.972656 0-7.25-2.203124-13.996094-5.972656-19.601563 3.769532-5.609374 5.972656-12.355468 5.972656-19.605468s-2.203124-13.996094-5.972656-19.605469zm0 0"/><path d="m496.394531 119.417969h-14.90625l-36.660156-33.511719c-15.382813-14.058594-36.773437-20.050781-57.214844-16.019531l-37.457031 7.375c-16.832031 3.316406-29.046875 18.171875-29.046875 35.324219 0 2.332031.210937 4.617187.617187 6.832031h-20.398437c-19.417969 0-35.210937 15.796875-35.210937 35.214843 0 7.25 2.199218 13.996094 5.972656 19.605469-3.773438 5.605469-5.972656 12.351563-5.972656 19.601563 0 7.253906 2.199218 14 5.972656 19.605468-3.773438 5.609376-5.972656 12.355469-5.972656 19.605469 0 10.816407 4.898437 20.507813 12.597656 26.972657-1.417969 3.8125-2.195313 7.9375-2.195313 12.238281 0 19.417969 15.796875 35.214843 35.214844 35.214843h184.660156c8.617188 0 15.605469-6.988281 15.605469-15.609374v-156.839844c0-8.621094-6.988281-15.609375-15.605469-15.609375zm0 0"/><path d="m256.617188 61.128906c-8.617188 0-15.605469-6.988281-15.605469-15.609375v-29.910156c0-8.621094 6.988281-15.609375 15.605469-15.609375 8.621093 0 15.609374 6.988281 15.609374 15.609375v29.910156c0 8.621094-6.988281 15.609375-15.609374 15.609375zm0 0"/><path d="m215.148438 69.644531c-5.410157 0-10.667969-2.816406-13.554688-7.847656l-14.878906-25.949219c-4.289063-7.476562-1.703125-17.015625 5.773437-21.304687 7.476563-4.285157 17.015625-1.699219 21.304688 5.777343l14.878906 25.949219c4.289063 7.476563 1.703125 17.015625-5.773437 21.304688-2.449219 1.402343-5.117188 2.070312-7.75 2.070312zm0 0"/><path d="m296.851562 69.644531c-2.632812 0-5.300781-.667969-7.746093-2.070312-7.480469-4.289063-10.066407-13.828125-5.777344-21.304688l14.878906-25.949219c4.289063-7.480468 13.828125-10.0625 21.304688-5.777343 7.480469 4.289062 10.0625 13.828125 5.777343 21.304687l-14.882812 25.949219c-2.882812 5.03125-8.144531 7.847656-13.554688 7.847656zm0 0"/><path d="m255.382812 406.9375c-8.621093 0-15.609374-6.988281-15.609374-15.609375v-29.914063c0-8.617187 6.988281-15.605468 15.609374-15.605468 8.621094 0 15.605469 6.988281 15.605469 15.605468v29.914063c0 8.621094-6.988281 15.609375-15.605469 15.609375zm0 0"/><path d="m311.761719 394.460938c-5.410157 0-10.667969-2.816407-13.554688-7.84375l-14.878906-25.949219c-4.289063-7.480469-1.703125-17.015625 5.777344-21.304688 7.476562-4.285156 17.011719-1.703125 21.300781 5.777344l14.882812 25.949219c4.285157 7.476562 1.703126 17.015625-5.777343 21.300781-2.449219 1.40625-5.117188 2.070313-7.75 2.070313zm0 0"/><path d="m200.238281 394.460938c-2.632812 0-5.300781-.667969-7.75-2.070313-7.476562-4.285156-10.0625-13.824219-5.773437-21.300781l14.878906-25.949219c4.289062-7.480469 13.824219-10.0625 21.304688-5.777344 7.476562 4.289063 10.0625 13.824219 5.773437 21.304688l-14.878906 25.949219c-2.886719 5.027343-8.144531 7.84375-13.554688 7.84375zm0 0"/></svg>