<?xml version="1.0" encoding="iso-8859-1"?>
<!-- Generator: Adobe Illustrator 19.0.0, SVG Export Plug-In . SVG Version: 6.00 Build 0)  -->
<svg version="1.1" id="Capa_1" xmlns="http://www.w3.org/2000/svg" xmlns:xlink="http://www.w3.org/1999/xlink" x="0px" y="0px"
	 viewBox="0 0 512 512" style="enable-background:new 0 0 512 512;" xml:space="preserve">
<g>
	<g>
		<path d="M234.017,131.579c-4.902-1.786-10.093-2.113-15.067-1.008c-0.859-10.424-7.754-19.572-17.694-23.182
			c-4.659-1.695-9.579-2.077-14.321-1.162c-0.236-11.09-7.323-21.024-17.786-24.837c-8.393-3.058-17.339-1.679-24.26,2.936
			c-3.12-5.335-8.037-9.583-14.083-11.787c-6.786-2.469-14.129-2.148-20.673,0.905c-6.546,3.055-11.508,8.476-13.969,15.257
			L90.76,103.54c-0.008,0.02-0.017,0.038-0.025,0.059l-4.031,11.076c-6.015-0.814-12.145,0.108-17.777,2.733
			c-7.765,3.619-13.654,10.045-16.583,18.095l-19.518,53.635c-1.709,4.689-1.916,9.722-0.6,14.552l13.049,47.865
			c3.341,12.28,11.854,22.463,23.175,27.98l-9.935,27.288c-3.378-0.694-6.873-0.308-10.056,1.175
			c-3.915,1.826-6.886,5.068-8.364,9.128l-1.354,3.721L10.067,310.41c-3.893-1.415-8.196,0.591-9.613,4.482
			c-1.416,3.893,0.59,8.196,4.483,9.613l28.673,10.436c-0.99,2.975-1.898,4.457-2.224,7.563L6.888,353.928
			c-3.754,1.75-5.378,6.212-3.628,9.967c1.272,2.728,3.978,4.332,6.802,4.332c1.061,0,2.14-0.227,3.165-0.705l23.715-11.059
			c0.852,0.732,1.789,1.379,2.804,1.93l-14.461,39.725c-1.417,3.893,0.59,8.196,4.482,9.613c0.847,0.308,1.713,0.454,2.565,0.454
			c3.063,0,5.939-1.891,7.048-4.936l14.394-39.541l76.345,27.788l-14.394,39.542c-1.417,3.893,0.59,8.196,4.482,9.613
			c0.847,0.308,1.713,0.454,2.565,0.454c3.063,0,5.939-1.891,7.048-4.936l14.46-39.721c1.068,0.218,2.14,0.337,3.202,0.337
			c6.609,0,12.828-4.084,15.216-10.644l7.839-21.539c2.772-7.617-0.57-15.977-7.491-19.731l9.878-27.135
			c5.171,1.435,10.624,0.986,15.538-1.303c5.466-2.548,9.613-7.074,11.677-12.743l14.53-39.92c1.417-3.893-0.589-8.196-4.482-9.613
			c-3.891-1.414-8.196,0.589-9.613,4.482l-14.531,39.921c-1.429,3.926-5.787,5.958-9.724,4.525c-3.307-1.2-6.885-1.043-10.075,0.443
			c-3.199,1.49-5.622,4.136-6.82,7.44l-10.406,28.587l-23.982-8.729c-0.034-0.013-0.068-0.024-0.101-0.037L93.61,319.388
			c-0.04-0.016-0.08-0.029-0.12-0.044l-20.813-7.575c11.495-33.624,14.398-34.747,12.102-39.665
			c-1.798-3.857-5.497-4.135-6.982-4.878c-8.834-3.215-15.581-10.546-18.049-19.615l-13.05-47.869
			c-0.496-1.82-0.42-3.712,0.222-5.474l19.52-53.639c1.559-4.282,4.692-7.702,8.824-9.628c1.937-0.903,3.986-1.411,6.061-1.55
			l-17.067,46.89c-1.784,4.903,1.867,10.067,7.047,10.067c3.063,0,5.94-1.892,7.048-4.936l21.051-57.838l10.856-29.81
			c1.096-3.02,3.302-5.431,6.214-6.789c2.912-1.358,6.18-1.502,9.197-0.403c4.736,1.726,7.918,6.272,7.918,11.313
			c0,1.396-0.246,2.785-0.732,4.127c-1.409,3.895,0.604,8.193,4.497,9.604c3.893,1.409,8.194-0.602,9.605-4.494l0.002-0.005
			c0-0.002,0.001-0.003,0.001-0.004l1.633-4.501c1.1-3.019,3.31-5.429,6.223-6.788c2.914-1.357,6.179-1.501,9.192-0.402
			c4.742,1.728,7.928,6.274,7.928,11.313c0,1.396-0.245,2.777-0.728,4.105l-4.59,12.612c-0.003,0.009-0.006,0.018-0.01,0.027
			c-1.416,3.893,0.591,8.196,4.483,9.612c3.893,1.419,8.196-0.591,9.613-4.483l0.009-0.023c1.102-3.01,3.306-5.412,6.208-6.765
			c2.911-1.357,6.177-1.5,9.205-0.396c4.731,1.718,7.91,6.255,7.91,11.29c0,1.403-0.246,2.795-0.729,4.126l-3.94,10.83
			c-1.416,3.893,0.592,8.196,4.484,9.612c3.893,1.414,8.195-0.591,9.612-4.483l0.007-0.019c1.101-3.012,3.307-5.415,6.213-6.769
			c2.913-1.357,6.178-1.498,9.204-0.397c4.736,1.719,7.918,6.264,7.918,11.31c0,1.395-0.245,2.777-0.725,4.096l-24.873,68.33
			c-1.416,3.892,0.59,8.195,4.483,9.612c3.892,1.414,8.196-0.591,9.613-4.483l24.87-68.321c1.083-2.977,1.632-6.084,1.632-9.233
			C251.81,145.65,244.656,135.439,234.017,131.579z M154.804,357.624l0.934,0.34c0.609,0.222,0.924,0.898,0.702,1.507l-7.839,21.538
			c-0.221,0.609-0.896,0.923-1.506,0.703l-17.704-6.444L154.804,357.624z M137.548,351.344l-25.413,17.644l-14.176-5.16
			l25.413-17.644L137.548,351.344z M106.116,339.904l-25.413,17.644l-14.176-5.16l25.413-17.644L106.116,339.904z M74.684,328.463
			l-25.412,17.643c-0.909-0.493-3.523-0.66-2.92-2.313l3.919-10.767c0-0.001,0.001-0.002,0.001-0.003
			c0.001-0.001,0.001-0.003,0.001-0.004l3.918-10.765c0.137-0.377,0.406-0.568,0.608-0.662c0.201-0.093,0.52-0.177,0.898-0.039
			l4.741,1.726c0.02,0.007,0.038,0.017,0.058,0.024c0.023,0.008,0.046,0.013,0.068,0.021L74.684,328.463z"/>
	</g>
</g>
<g>
	<g>
		<path d="M511.546,314.893c-1.417-3.893-5.723-5.897-9.613-4.482l-28.674,10.436l-1.354-3.72c-1.478-4.061-4.448-7.303-8.364-9.129
			c-3.183-1.484-6.679-1.87-10.056-1.176l-9.935-27.288c11.32-5.518,19.833-15.7,23.174-27.976l13.05-47.869
			c1.317-4.83,1.11-9.862-0.598-14.548l-19.52-53.639c-2.929-8.05-8.818-14.475-16.583-18.095
			c-5.64-2.629-11.777-3.546-17.779-2.738l-4.03-11.071c-0.007-0.021-0.018-0.039-0.025-0.06l-5.401-14.83
			c-2.464-6.789-7.426-12.21-13.972-15.265c-6.543-3.054-13.886-3.373-20.678-0.904c-6.042,2.203-10.959,6.451-14.078,11.784
			c-6.921-4.613-15.868-5.99-24.261-2.934c-10.463,3.812-17.55,13.746-17.786,24.836c-4.741-0.913-9.662-0.532-14.316,1.161
			c-9.945,3.612-16.84,12.761-17.699,23.184c-4.973-1.106-10.162-0.778-15.059,1.005c-10.648,3.863-17.802,14.074-17.802,25.41
			c0,3.149,0.549,6.257,1.636,9.244l2.705,7.429c1.399,3.898,5.691,5.926,9.592,4.526c3.898-1.399,5.925-5.694,4.526-9.593
			l-2.73-7.5c-0.483-1.329-0.729-2.711-0.729-4.106c0-5.047,3.182-9.592,7.926-11.313c3.018-1.099,6.283-0.958,9.196,0.4
			c2.906,1.354,5.112,3.758,6.213,6.769l0.007,0.019c1.416,3.892,5.72,5.899,9.612,4.483c3.892-1.416,5.9-5.72,4.484-9.612
			l-3.936-10.819c-0.486-1.342-0.732-2.733-0.732-4.137c0-5.035,3.179-9.572,7.915-11.292c3.022-1.099,6.29-0.959,9.2,0.398
			c2.902,1.353,5.106,3.755,6.208,6.765l0.009,0.023c1.416,3.893,5.72,5.896,9.613,4.483c3.892-1.416,5.899-5.72,4.483-9.612
			c-0.003-0.01-0.006-0.019-0.01-0.027l-4.589-12.611c-0.483-1.329-0.729-2.711-0.729-4.106c0-5.039,3.186-9.586,7.927-11.313
			c3.016-1.099,6.279-0.955,9.193,0.402c2.913,1.359,5.123,3.77,6.22,6.778l1.636,4.511c0,0.001,0.001,0.002,0.001,0.004
			l0.002,0.005c1.413,3.894,5.711,5.904,9.605,4.494c3.893-1.411,5.906-5.71,4.497-9.604c-0.486-1.342-0.732-2.73-0.732-4.127
			c0-5.041,3.182-9.588,7.914-11.312c3.022-1.099,6.289-0.956,9.202,0.402c2.912,1.358,5.118,3.77,6.217,6.797l10.842,29.771
			l21.063,57.869c1.109,3.045,3.985,4.936,7.048,4.936c5.176,0,8.833-5.161,7.047-10.067l-17.068-46.894
			c2.072,0.141,4.123,0.65,6.063,1.554c4.132,1.926,7.266,5.346,8.824,9.628l19.521,53.643c0.641,1.758,0.717,3.649,0.221,5.47
			l-13.051,47.873c-2.467,9.065-9.214,16.396-18.046,19.61l-2.75,1c-1.87,0.681-3.393,2.075-4.234,3.879
			c-0.841,1.803-0.931,3.866-0.25,5.735l12.353,33.93l-20.817,7.577c-0.038,0.014-0.076,0.026-0.113,0.041l-31.334,11.404
			c-0.031,0.012-0.062,0.022-0.093,0.034l-23.985,8.73l-10.403-28.578c-1.202-3.313-3.625-5.959-6.824-7.449
			c-3.189-1.487-6.768-1.644-10.081-0.441c-3.928,1.429-8.289-0.601-9.717-4.528L289.02,197.067
			c-1.413-3.894-5.715-5.906-9.608-4.491c-3.894,1.412-5.905,5.715-4.492,9.608l36.942,101.505
			c4.05,11.128,15.995,17.145,27.215,14.047l9.878,27.135c-6.921,3.754-10.263,12.114-7.491,19.732l7.839,21.538
			c2.389,6.561,8.607,10.644,15.216,10.644c1.062,0,2.134-0.119,3.202-0.337l14.46,39.721c1.108,3.046,3.984,4.936,7.048,4.936
			c5.177,0,8.833-5.161,7.047-10.067l-14.394-39.542l76.345-27.788l14.394,39.541c1.41,3.873,5.699,5.904,9.613,4.482
			c3.892-1.417,5.899-5.721,4.482-9.613l-14.461-39.725c1.015-0.551,1.951-1.198,2.804-1.93
			c24.402,11.118,23.965,11.764,26.88,11.764c8.003,0,10.418-10.922,3.174-14.299l-24.499-11.424
			c-0.326-3.108-1.227-4.569-2.223-7.563l28.673-10.436C510.955,323.089,512.962,318.785,511.546,314.893z M364.906,381.712
			c-0.613,0.22-1.286-0.093-1.507-0.703l-7.839-21.537c-0.222-0.61,0.093-1.286,0.702-1.508l0.934-0.34l25.413,17.644
			L364.906,381.712z M399.865,368.988l-25.413-17.644l14.176-5.16l25.413,17.644L399.865,368.988z M431.296,357.547l-25.413-17.644
			l14.176-5.159l25.412,17.643L431.296,357.547z M464.945,345.3l-2.218,0.807l-25.412-17.643l14.123-5.14
			c0.022-0.008,0.044-0.013,0.065-0.021c0.019-0.007,0.036-0.016,0.055-0.023l4.744-1.727c0.144-0.053,0.279-0.073,0.403-0.073
			c0.202,0,0.372,0.054,0.496,0.112c0.202,0.094,0.47,0.285,0.608,0.664l3.918,10.764c0.001,0.001,0.001,0.003,0.001,0.004
			c0,0.001,0.001,0.002,0.001,0.003l3.919,10.766C465.87,344.402,465.555,345.078,464.945,345.3z"/>
	</g>
</g>
<g>
</g>
<g>
</g>
<g>
</g>
<g>
</g>
<g>
</g>
<g>
</g>
<g>
</g>
<g>
</g>
<g>
</g>
<g>
</g>
<g>
</g>
<g>
</g>
<g>
</g>
<g>
</g>
<g>
</g>
</svg>
