<?xml version="1.0" encoding="iso-8859-1"?>
<!-- Generator: Adobe Illustrator 19.0.0, SVG Export Plug-In . SVG Version: 6.00 Build 0)  -->
<svg version="1.1" id="Capa_1" xmlns="http://www.w3.org/2000/svg" xmlns:xlink="http://www.w3.org/1999/xlink" x="0px" y="0px"
	 viewBox="0 0 512.002 512.002" style="enable-background:new 0 0 512.002 512.002;" xml:space="preserve">
<g>
	<g>
		<g>
			<path d="M219.733,56.585c0,0.011-0.001,0.022-0.001,0.033C219.736,56.725,219.735,56.617,219.733,56.585z"/>
			<path d="M199.809,222.094c0,0.081,0,0.193,0,0.312l0,0C199.809,222.305,199.809,222.196,199.809,222.094z"/>
			<path d="M406.458,95.739c-1.022-19.501-12.665-32.411-29.668-32.889c-4.201-0.116-8.137,0.537-11.697,1.865l-0.023-4.961
				c-0.001-0.228-0.01-0.456-0.026-0.684c-0.597-8.142-4.114-15.823-9.922-21.646c-6.471-6.455-15.06-10.01-24.186-10.01
				c-5.127,0-10.02,1.151-14.419,3.213C314.725,13.371,299.984,0,282.513,0c-16.07,0-29.831,11.305-33.336,26.54
				c-4.332-2.214-9.175-3.519-14.276-3.663c-18.585-0.519-34.278,14.041-35.136,32.548c-0.021,0.28-0.032,0.564-0.032,0.854v4.939
				c0,0.164,0.004,0.328,0.012,0.49c0.002,8.897,0.012,44.117,0.025,80.192v18.56c0,0.047,0.006,0.093,0.007,0.14
				c0.009,22.145,0.023,48.147,0.033,61.494c0-0.03,0-0.052,0-0.072c0,0.061,0,0.182,0,0.384c0.001,1.06,0,0.481,0,0l-31.673-27.7
				c-14.386-14.111-37.569-14.026-51.849,0.253c-6.958,6.959-10.791,16.211-10.791,26.052c0,9.818,3.814,19.05,10.742,26.003
				l86.224,88.437l37.487,42.337v124.214c0,5.523,4.477,10,10,10h113.76c5.522,0,10-4.477,10-10V377.396
				c7.764-10.41,32.796-46.881,32.796-84.349V97.562C406.506,96.948,406.489,96.334,406.458,95.739z M199.791,304.061
				l-69.271-71.049c-0.031-0.031-0.061-0.061-0.09-0.091c-6.567-6.567-6.567-17.253,0-23.82c3.284-3.284,7.597-4.925,11.91-4.925
				c4.313,0,8.626,1.642,11.91,4.925c0.157,0.157,0.32,0.31,0.488,0.456l45.053,39.401V304.061z M316.801,60.333
				c0.637-7.259,6.802-12.918,14.135-12.918c3.793,0,7.365,1.48,10.043,4.151c2.338,2.344,3.784,5.413,4.093,8.67l0.167,55.098
				h-28.438V60.333z M316.8,135.334h28.438v15.125H316.8V135.334z M345.239,170.459v36.621h-28.438v-36.621H345.239z
				 M268.376,32.833C269.053,25.613,275.208,20,282.513,20c7.297,0,13.445,5.611,14.125,12.828l0.164,26.945
				c0,0.009-0.001,0.018-0.001,0.028v40.427h-28.666L268.376,32.833z M268.135,120.228h28.666v15.125h-28.666V120.228z
				 M268.135,155.353h28.666v51.727h-28.666V155.353z M219.731,56.618c0-0.05,0.001-0.048,0.001-0.033
				c0.001-0.028,0.002-0.056,0.004-0.084c0.277-7.738,6.857-13.86,14.597-13.632c7.297,0.205,13.326,6.261,13.771,13.785
				c0,0.013,0,0,0,0.013l0.029,58.667H219.76C219.749,84.473,219.731,56.618,219.731,56.618z M219.768,135.334h28.366v15.125
				h-28.363C219.77,147.677,219.77,138.119,219.768,135.334z M248.135,170.459v36.621h-28.337
				c-0.006-10.262-0.012-22.984-0.018-36.621H248.135z M320.01,492.002h-22.236v-42.833h22.236V492.002z M386.505,293.047
				c0,36.261-30.274,74.292-30.574,74.665c-1.438,1.779-2.223,3.998-2.223,6.285v118.005h-13.697v-52.833c0-5.523-4.478-10-10-10
				h-11.118v-48.871c0-5.523-4.478-10-10-10c-5.522,0-10,4.477-10,10v48.871h-11.118c-5.522,0-10,4.477-10,10v52.833H259.95V373.997
				c0-2.442-0.894-4.8-2.513-6.629l-37.647-42.517c-0.005-1.569,0.029-92.802,0.024-97.771h166.692V293.047z M386.506,207.08
				h-21.268v-19.058h21.268V207.08z M386.506,168.022h-21.268v-15.125h21.268V168.022z M386.506,132.896h-21.268V95.644
				c0.413-4.951,2.368-12.807,10.63-12.807c0.121,0,0.243,0.001,0.366,0.005c8.296,0.233,9.983,8.836,10.251,13.947
				c0.014,0.253,0.021,0.513,0.021,0.772V132.896z"/>
		</g>
	</g>
</g>
<g>
	<g>
		<path d="M318.702,341.421c-0.133-0.64-0.322-1.27-0.572-1.87c-0.25-0.61-0.561-1.19-0.92-1.73c-0.37-0.55-0.79-1.06-1.25-1.52
			c-0.46-0.46-0.97-0.88-1.521-1.24c-0.54-0.36-1.12-0.67-1.72-0.92c-0.61-0.25-1.24-0.44-1.87-0.57c-1.29-0.26-2.62-0.26-3.91,0
			c-0.64,0.13-1.27,0.32-1.87,0.57c-0.609,0.25-1.189,0.56-1.729,0.92c-0.55,0.36-1.06,0.78-1.521,1.24
			c-0.46,0.46-0.88,0.97-1.239,1.52c-0.36,0.54-0.67,1.12-0.92,1.73c-0.25,0.6-0.44,1.23-0.57,1.87c-0.13,0.64-0.2,1.3-0.2,1.95
			c0,2.64,1.07,5.21,2.93,7.07c0.461,0.46,0.971,0.88,1.521,1.25c0.54,0.36,1.12,0.67,1.729,0.92c0.601,0.25,1.23,0.44,1.87,0.57
			c0.641,0.13,1.301,0.19,1.95,0.19c0.66,0,1.311-0.06,1.96-0.19c0.63-0.13,1.26-0.32,1.87-0.57c0.6-0.25,1.18-0.56,1.72-0.92
			c0.551-0.37,1.061-0.79,1.521-1.25c1.859-1.86,2.93-4.43,2.93-7.07C318.891,342.721,318.831,342.061,318.702,341.421z"/>
	</g>
</g>
<g>
	<g>
		<path d="M308.894,242.958c-17.647,0-32.005,14.357-32.005,32.005c0,17.648,14.357,32.005,32.005,32.005
			s32.005-14.357,32.005-32.005C340.898,257.315,326.541,242.958,308.894,242.958z M308.894,286.968
			c-6.619,0-12.005-5.386-12.005-12.005s5.386-12.005,12.005-12.005s12.005,5.385,12.005,12.005S315.513,286.968,308.894,286.968z"
			/>
	</g>
</g>
<g>
</g>
<g>
</g>
<g>
</g>
<g>
</g>
<g>
</g>
<g>
</g>
<g>
</g>
<g>
</g>
<g>
</g>
<g>
</g>
<g>
</g>
<g>
</g>
<g>
</g>
<g>
</g>
<g>
</g>
</svg>
