<?xml version="1.0" encoding="utf-8"?>
<!-- Generator: Adobe Illustrator 19.0.0, SVG Export Plug-In . SVG Version: 6.00 Build 0)  -->
<svg version="1.1" id="Camada_1" xmlns="http://www.w3.org/2000/svg" xmlns:xlink="http://www.w3.org/1999/xlink" x="0px" y="0px"
	 viewBox="0 0 278 822" style="enable-background:new 0 0 278 822;" xml:space="preserve">
<style type="text/css">
	.st0{fill:#FFFFFF;}
</style>
<g>
	<path d="M221,65H108.8C94,65,81.3,70.3,70.8,80.8C60.3,91.2,55,103.9,55,118.7V191h37.8L55,207.2V264h112.8
		c14.8,0,27.2-5.5,37.7-16c10.5-10.5,15.5-23.4,15.5-38.1V138h-37.2l37.2-16.6V65z"/>
	<path d="M227,621.1V589c0-8.9-3.1-16.4-9.4-22.6c-6.2-6.3-13.7-9.4-22.6-9.4H61v199h75v-38.4l16.1,38.4H227v-70.6
		c0-8.8-3.1-16.4-9.4-22.7c-6.2-6.3-13.7-9.5-22.7-9.5c8.9,0,16.4-3.1,22.6-9.5C223.9,637.6,227,630,227,621.1z"/>
	<g>
		<path d="M175.5,310h-75L52.2,509h80.4l5.3-26.9l5.4,26.9h80.5L175.5,310z"/>
		<g>
			<g>
				<path class="st0" d="M168.7,468.2c-3.6-12.7-7.1-24.6-10.3-36.6c-0.9-3.5-2-5-5.9-4.4c-6,0.9-10-2.5-11.9-7.7
					c-2.2-5.8-3.8-11.9-5.2-17.9c-1.2-5.5,1.8-10.4,6.8-11.5c5.3-1.1,9.9,0.7,11.4,6c1.6,5.7,4.3,5.3,8.7,3.8
					c4.8-1.6,10.1-1.7,7.3-9.6c-1.7-4.7,1.9-8.3,6.3-9.8c4.8-1.7,9.3-0.2,11.4,4.6c3.1,6.9,5.3,14.1,5.8,21.7
					c0.3,4.5-1.6,8.9-6,10.5c-4.5,1.6-3.7,4.1-2.8,7.4c3.4,11.7,6.7,23.4,10.2,36.1C184.2,458.4,175.9,461.1,168.7,468.2z"/>
				<path class="st0" d="M222.4,509h-37.2c-0.7-1.1-1.4-2.2-2-3.3c4.8-0.1,9.4-0.3,13.6-2.4c4.2-2,7.2-5.2,10-9.2
					C211.5,499.8,216.5,504.9,222.4,509z"/>
				<path class="st0" d="M190.9,469.3c7.5,1.9,12.4,10.7,10.3,18.2c-2,7.3-10.1,12.1-17.6,10.3c-7.5-1.7-12.6-10.2-10.8-17.9
					C174.6,472.5,183.3,467.4,190.9,469.3z"/>
			</g>
			<path class="st0" d="M139,397.7l-1.9,11L126.6,470c-1.2,6.8-4.4,13.3-9.4,18.2L96.3,509H69.5l32.2-30.5
				c4.8-4.8,8.8-13.1,9.9-19.8l15.1-61.9c1.1-6.6-1.4-13.7,3.9-12.8c3.6,0.7,6.8,3.8,8.1,7.8C139.2,393.6,139.4,395.6,139,397.7z"/>
		</g>
		<g>
			<g>
				
					<rect x="151.6" y="356.2" transform="matrix(0.7071 0.7071 -0.7071 0.7071 303.256 -1.7472)" class="st0" width="4.4" height="18"/>
			</g>
			<g>
				
					<rect x="109.3" y="363" transform="matrix(0.7071 0.7071 -0.7071 0.7071 292.8796 23.3037)" class="st0" width="18" height="4.4"/>
			</g>
			<g>
				
					<rect x="125.6" y="354.6" transform="matrix(8.714689e-002 0.9962 -0.9962 8.714689e-002 478.2378 191.6297)" class="st0" width="18" height="4.4"/>
			</g>
		</g>
	</g>
</g>
</svg>
