<?xml version="1.0" standalone="no"?>
<!DOCTYPE svg PUBLIC "-//W3C//DTD SVG 20010904//EN"
 "http://www.w3.org/TR/2001/REC-SVG-20010904/DTD/svg10.dtd">
<svg version="1.0" xmlns="http://www.w3.org/2000/svg"
 width="485.000000pt" height="68.000000pt" viewBox="0 0 485.000000 68.000000"
 preserveAspectRatio="xMidYMid meet">

<g transform="translate(0.000000,68.000000) scale(0.100000,-0.100000)"
fill="#000000" stroke="none">
<path d="M9 659 c-7 -13 -7 -24 -2 -28 6 -3 233 -147 505 -318 l496 -313 1417
0 1417 0 504 318 c277 174 504 320 504 323 0 3 -6 13 -13 23 -13 17 -51 -5
-515 -298 l-501 -316 -1396 0 -1395 0 -500 315 c-275 173 -502 315 -505 315
-2 0 -9 -10 -16 -21z"/>
</g>
</svg>
