<?xml version="1.0" encoding="utf-8"?>
<!-- Generator: Adobe Illustrator 19.0.0, SVG Export Plug-In . SVG Version: 6.00 Build 0)  -->
<svg version="1.1" id="Camada_1" xmlns="http://www.w3.org/2000/svg" xmlns:xlink="http://www.w3.org/1999/xlink" x="0px" y="0px"
	 viewBox="-3 5 24 24" style="enable-background:new -3 5 24 24;" xml:space="preserve">
<style type="text/css">
	.st0{fill:#FFFFFF;}
</style>
<g>
	<path class="st0" d="M9,17c1.7,0,3-1.3,3-3s-1.3-3-3-3s-3,1.3-3,3S7.3,17,9,17z"/>
	<path class="st0" d="M15,22c0-2-4-3.1-6-3.1S3,20,3,22v1h12V22z"/>
	<path d="M17.5,8.7C17.1,8.3,16.6,8,16,8H2C1.4,8,0.9,8.3,0.5,8.7C0.2,9,0,9.5,0,10v14c0,1.1,0.9,2,2,2h14c1.1,0,2-0.9,2-2V10
		C18,9.5,17.8,9,17.5,8.7z M9,11c1.7,0,3,1.3,3,3s-1.3,3-3,3s-3-1.3-3-3S7.3,11,9,11z M3,22c0-2,4-3.1,6-3.1s6,1.1,6,3.1v1H3V22z"/>
</g>
</svg>
