<?xml version="1.0" encoding="utf-8"?>
<!-- Generator: Adobe Illustrator 19.0.0, SVG Export Plug-In . SVG Version: 6.00 Build 0)  -->
<svg version="1.1" id="Camada_1" xmlns="http://www.w3.org/2000/svg" xmlns:xlink="http://www.w3.org/1999/xlink" x="0px" y="0px"
	 viewBox="-247 -239 512 512" style="enable-background:new -247 -239 512 512;" xml:space="preserve">
<style type="text/css">
	.st0{clip-path:url(#SVGID_2_);}
</style>
<g>
	<defs>
		<rect id="SVGID_1_" x="-247" y="-239" width="512" height="512"/>
	</defs>
	<clipPath id="SVGID_2_">
		<use xlink:href="#SVGID_1_"  style="overflow:visible;"/>
	</clipPath>
	<path class="st0" d="M201-132.3c-23.7-7.5-49.7-10.7-74.7-10.7c-41.6,0-86.4,8.5-117.3,32c-30.9-23.5-75.7-32-117.3-32
		s-86.4,8.5-117.3,32v312.5c0,5.3,5.3,10.7,10.7,10.7c2.1,0,3.2-1.1,5.3-1.1c28.8-13.9,70.4-23.5,101.3-23.5
		c41.6,0,86.4,8.5,117.3,32c28.8-18.1,81.1-32,117.3-32c35.2,0,71.5,6.4,101.3,22.4c2.1,1.1,3.2,1.1,5.3,1.1
		c5.3,0,10.7-5.3,10.7-10.7V-111C230.9-120.6,217-127,201-132.3z M201,155.7c-23.5-7.5-49.1-10.7-74.7-10.7
		C90.1,145,37.8,158.9,9,177V-68.3c28.8-18.1,81.1-32,117.3-32c25.6,0,51.2,3.2,74.7,10.7V155.7z"/>
</g>
</svg>
