<?xml version="1.0" encoding="iso-8859-1"?>
<!-- Generator: Adobe Illustrator 19.0.0, SVG Export Plug-In . SVG Version: 6.00 Build 0)  -->
<svg version="1.1" id="Capa_1" xmlns="http://www.w3.org/2000/svg" xmlns:xlink="http://www.w3.org/1999/xlink" x="0px" y="0px"
	 viewBox="0 0 512 512" style="enable-background:new 0 0 512 512;" xml:space="preserve">
<g>
	<g>
		<path d="M503.917,136.854l-21.115-5.281c-0.406-1.063-0.844-2.104-1.281-3.146l11.188-18.646
			c2.521-4.198,1.854-9.573-1.604-13.031l-33.188-33.187c-3.469-3.49-8.833-4.125-13.031-1.604L426.24,73.146
			c-1.042-0.448-2.094-0.875-3.146-1.281l-5.281-21.115c-1.188-4.75-5.448-8.083-10.344-8.083h-46.938
			c-4.896,0-9.156,3.333-10.344,8.083l-5.281,21.115c-1.052,0.406-2.104,0.833-3.146,1.281l-18.646-11.187
			c-4.198-2.5-9.573-1.865-13.031,1.604L276.896,96.75c-3.458,3.458-4.125,8.833-1.604,13.031l11.188,18.646
			c-0.438,1.042-0.875,2.083-1.281,3.146l-21.115,5.281c-4.75,1.188-8.083,5.448-8.083,10.344v46.938
			c0,4.896,3.333,9.156,8.083,10.344l21.115,5.281c0.406,1.063,0.833,2.104,1.281,3.146l-11.188,18.646
			c-0.518,0.863-0.34,1.858-0.592,2.793c-0.086-0.092-0.068-0.234-0.158-0.324l-39.229-39.229
			c-3.469-3.469-8.854-4.125-13.031-1.604l-18.385,11.042c-3.698-1.75-7.469-3.313-11.281-4.688l-5.208-20.802
			c-1.188-4.74-5.448-8.073-10.344-8.073h-55.458c-4.896,0-9.156,3.333-10.344,8.073l-5.208,20.802
			c-3.813,1.375-7.583,2.938-11.281,4.688l-18.385-11.042c-4.167-2.51-9.573-1.865-13.031,1.604l-39.229,39.229
			c-3.458,3.458-4.125,8.833-1.604,13.031l11.042,18.385c-1.75,3.698-3.313,7.469-4.688,11.281l-20.802,5.208
			C3.333,283.115,0,287.375,0,292.271v55.458c0,4.896,3.333,9.156,8.073,10.344l20.802,5.208c1.375,3.813,2.938,7.583,4.688,11.281
			l-11.042,18.385c-2.521,4.198-1.854,9.573,1.604,13.031l39.229,39.229c3.458,3.448,8.854,4.094,13.031,1.604l18.385-11.042
			c3.698,1.75,7.469,3.313,11.281,4.688l5.208,20.802c1.188,4.74,5.448,8.073,10.344,8.073h55.458c4.896,0,9.156-3.333,10.344-8.073
			l5.208-20.802c3.813-1.375,7.583-2.938,11.281-4.688l18.385,11.042c4.188,2.5,9.583,1.844,13.031-1.604l39.229-39.229
			c3.458-3.458,4.125-8.833,1.604-13.031l-11.042-18.385c1.75-3.698,3.313-7.469,4.688-11.281l20.802-5.208
			c4.74-1.188,8.073-5.448,8.073-10.344v-55.458c0-4.896-3.333-9.156-8.073-10.344l-20.802-5.208
			c-1.375-3.813-2.938-7.583-4.688-11.281l11.042-18.385c0.518-0.863,0.34-1.858,0.592-2.793c0.086,0.092,0.068,0.234,0.158,0.324
			l33.188,33.188c3.458,3.469,8.823,4.094,13.031,1.604l18.646-11.188c1.042,0.448,2.083,0.875,3.146,1.281l5.281,21.115
			c1.188,4.75,5.448,8.083,10.344,8.083h46.938c4.896,0,9.156-3.333,10.344-8.083l5.281-21.115c1.063-0.406,2.104-0.833,3.146-1.281
			l18.646,11.188c4.208,2.5,9.583,1.844,13.031-1.604l33.188-33.188c3.458-3.458,4.125-8.833,1.604-13.031l-11.188-18.646
			c0.448-1.042,0.875-2.083,1.281-3.146l21.115-5.281c4.75-1.188,8.083-5.448,8.083-10.344v-46.938
			C512,142.302,508.667,138.042,503.917,136.854z M149.333,384c-35.292,0-64-28.708-64-64s28.708-64,64-64c35.292,0,64,28.708,64,64
			S184.625,384,149.333,384z M384,213.333c-23.531,0-42.667-19.135-42.667-42.667S360.469,128,384,128s42.667,19.135,42.667,42.667
			S407.531,213.333,384,213.333z"/>
	</g>
</g>
<g>
</g>
<g>
</g>
<g>
</g>
<g>
</g>
<g>
</g>
<g>
</g>
<g>
</g>
<g>
</g>
<g>
</g>
<g>
</g>
<g>
</g>
<g>
</g>
<g>
</g>
<g>
</g>
<g>
</g>
</svg>
