<?xml version="1.0" encoding="utf-8"?>
<!-- Generator: Adobe Illustrator 19.0.0, SVG Export Plug-In . SVG Version: 6.00 Build 0)  -->
<svg version="1.1" id="Camada_1" xmlns="http://www.w3.org/2000/svg" xmlns:xlink="http://www.w3.org/1999/xlink" x="0px" y="0px"
	 viewBox="0 0 32 32" style="enable-background:new 0 0 32 32;" xml:space="preserve">
<style type="text/css">
	.st0{fill:#FFFFFF;}
</style>
<g id="XMLID_12_">
	<g id="XMLID_13_">
		<g id="XMLID_21_">
			<g id="XMLID_28_">
				<path id="XMLID_33_" d="M10,9H3.5c-0.9,0-1.8,0.6-2.4,1.2C0.5,10.9,0,11.9,0,12.8V17h2.5L0,18v4h6.9c0.9,0,1.6-0.6,2.2-1.3
					c0.6-0.6,0.9-1.7,0.9-2.6V14H7.9l2.1-1V9z"/>
				<path id="XMLID_31_" d="M18.3,9h-4.4l-2.9,13h4.8l0.3-1.6l0.3,1.6h4.8L18.3,9z"/>
				<path id="XMLID_29_" d="M32,13.4v-1.9c0-0.5-0.3-1.3-0.7-1.7C30.9,9.5,30.4,9,29.8,9H22v13h4v-2.9l1.3,2.9H32v-4.8
					c0-0.5-0.3-1-0.7-1.3c-0.4-0.4-0.9-0.6-1.4-0.6c0.5,0,1.1-0.2,1.4-0.6C31.7,14.4,32,14,32,13.4z"/>
			</g>
			<g id="XMLID_22_">
				<g id="XMLID_24_">
					<path id="XMLID_7_" class="st0" d="M17.9,19c-0.2-0.7-0.4-1.5-0.6-2.2c-0.1-0.2-0.1-0.3-0.3-0.3c-0.4,0.1-0.6-0.1-0.7-0.5
						c-0.1-0.3-0.2-0.7-0.3-1.1c-0.1-0.3,0.1-0.6,0.4-0.7c0.3-0.1,0.6,0,0.7,0.4c0.1,0.3,0.3,0.3,0.5,0.2c0.3-0.1,0.6-0.1,0.4-0.6
						c-0.1-0.3,0.1-0.5,0.4-0.6c0.3-0.1,0.5,0,0.7,0.3c0.2,0.4,0.3,0.8,0.3,1.3c0,0.3-0.1,0.5-0.4,0.6c-0.3,0.1-0.2,0.2-0.2,0.4
						c0.2,0.7,0.4,1.4,0.6,2.1C18.9,18.4,18.4,18.6,17.9,19z"/>
					<path id="XMLID_6_" class="st0" d="M21.1,22h-2.2c0,0-0.1-0.4-0.1-0.5c0.3,0,0.6-0.2,0.8-0.3c0.2-0.1,0.4-0.1,0.6-0.3
						C20.5,21.2,20.8,21,21.1,22z"/>
					<path id="XMLID_5_" class="st0" d="M19.2,19c0.4,0.1,0.7,0.6,0.6,1.1c-0.1,0.4-0.6,0.7-1,0.6c-0.4-0.1-0.7-0.6-0.6-1.1
						C18.3,19.2,18.8,18.9,19.2,19z"/>
				</g>
				<path id="XMLID_4_" class="st0" d="M16.2,14.8l-0.1,0.6l-0.6,3.6c-0.1,0.4-0.3,1.1-0.6,1.4L13.7,22h-1.6l1.9-2.1
					c0.3-0.3,0.5-0.9,0.6-1.3l0.9-3.7c0.1-0.4-0.1-0.9,0.2-0.8c0.2,0,0.4,0.2,0.5,0.4C16.2,14.6,16.2,14.7,16.2,14.8z"/>
			</g>
		</g>
		<g id="XMLID_14_">
			<g id="XMLID_19_">
				
					<rect id="XMLID_3_" x="16.9" y="12.3" transform="matrix(0.7071 0.7071 -0.7071 0.7071 14.1029 -8.2872)" class="st0" width="0.3" height="1.1"/>
			</g>
			<g id="XMLID_17_">
				
					<rect id="XMLID_2_" x="14.4" y="12.8" transform="matrix(0.7071 0.7071 -0.7071 0.7071 13.4894 -6.806)" class="st0" width="1.1" height="0.3"/>
			</g>
			<g id="XMLID_15_">
				
					<rect id="XMLID_1_" x="15.4" y="12.3" transform="matrix(8.714689e-002 0.9962 -0.9962 8.714689e-002 26.8683 -4.5573)" class="st0" width="1.1" height="0.3"/>
			</g>
		</g>
	</g>
</g>
</svg>
