<?xml version="1.0" encoding="utf-8"?>
<!-- Generator: Adobe Illustrator 19.0.0, SVG Export Plug-In . SVG Version: 6.00 Build 0)  -->
<svg version="1.1" id="Camada_1" xmlns="http://www.w3.org/2000/svg" xmlns:xlink="http://www.w3.org/1999/xlink" x="0px" y="0px"
	 viewBox="0 0 960 560" style="enable-background:new 0 0 960 560;" xml:space="preserve">
<style type="text/css">
	.st0{fill:#FFFFFF;}
</style>
<g>
	<g>
		<g>
			<g>
				<path d="M380,180H267.8c-14.8,0-27.5,5.3-37.9,15.8c-10.5,10.4-15.8,23.1-15.8,38V306h37.8L214,322.3V379h112.8
					c14.8,0,27.2-5.5,37.7-16S380,339.7,380,325v-72h-37.2l37.2-16.6V180z"/>
				<path d="M519.6,180h-75l-48.3,199h80.4l5.3-26.9l5.4,26.9h80.5L519.6,180z"/>
				<path d="M746,244.5v-32.2c0-8.9-3.1-16.6-9.4-22.8c-6.2-6.3-13.8-9.6-22.7-9.6H580v199h75v-38l16,38h75v-70.2
					c0-8.8-3.1-16.4-9.4-22.7c-6.2-6.3-13.8-9.5-22.7-9.5c8.9,0,16.5-3.1,22.7-9.5C742.8,261,746,253.4,746,244.5z"/>
			</g>
			<g>
				<g>
					<path class="st0" d="M512.8,338.2c-3.6-12.7-7.1-24.6-10.3-36.6c-0.9-3.5-2-5-5.9-4.4c-6,0.9-10-2.5-11.9-7.7
						c-2.2-5.8-3.8-11.9-5.2-17.9c-1.2-5.5,1.8-10.4,6.8-11.5c5.3-1.1,9.9,0.7,11.4,6c1.6,5.7,4.3,5.3,8.7,3.8
						c4.8-1.6,10.1-1.7,7.3-9.6c-1.7-4.7,1.9-8.3,6.3-9.8c4.8-1.7,9.3-0.2,11.4,4.6c3.1,6.9,5.3,14.1,5.8,21.7
						c0.3,4.5-1.6,8.9-6,10.5c-4.5,1.6-3.7,4.1-2.8,7.4c3.4,11.7,6.7,23.4,10.2,36.1C528.3,328.4,520,331.1,512.8,338.2z"/>
					<path class="st0" d="M566.5,379h-37.2c-0.7-1.1-1.4-2.2-2-3.3c4.8-0.1,9.4-0.3,13.6-2.4c4.2-2,7.2-5.2,10-9.2
						C555.6,369.8,560.6,374.9,566.5,379z"/>
					<path class="st0" d="M535,339.3c7.5,1.9,12.4,10.7,10.3,18.2c-2,7.3-10.1,12.1-17.6,10.3c-7.5-1.7-12.6-10.2-10.8-17.9
						C518.7,342.5,527.4,337.4,535,339.3z"/>
				</g>
				<path class="st0" d="M483.1,267.7l-1.9,11L470.7,340c-1.2,6.8-4.4,13.3-9.4,18.2L440.4,379h-26.8l32.2-30.5
					c4.8-4.8,8.8-13.1,9.9-19.8l15.1-61.9c1.1-6.6-1.4-13.7,3.9-12.8c3.6,0.7,6.8,3.8,8.1,7.8C483.3,263.6,483.5,265.6,483.1,267.7z
					"/>
			</g>
		</g>
		<g>
			<g>
				
					<rect x="495.7" y="226.2" transform="matrix(0.7071 0.7071 -0.7071 0.7071 312.1181 -283.1423)" class="st0" width="4.4" height="18"/>
			</g>
			<g>
				
					<rect x="453.4" y="233" transform="matrix(0.7071 0.7071 -0.7071 0.7071 301.7417 -258.0914)" class="st0" width="18" height="4.4"/>
			</g>
			<g>
				
					<rect x="469.7" y="224.6" transform="matrix(8.714689e-002 0.9962 -0.9962 8.714689e-002 662.8497 -269.837)" class="st0" width="18" height="4.4"/>
			</g>
		</g>
	</g>
</g>
</svg>
